<svg width="27" height="27" viewBox="0 0 27 27" fill="none" xmlns="http://www.w3.org/2000/svg">
<path d="M17.0156 23.7375L7.53752 14.2875C7.42502 14.175 7.34552 14.0531 7.29902 13.9219C7.25177 13.7906 7.22815 13.65 7.22815 13.5C7.22815 13.35 7.25177 13.2094 7.29902 13.0781C7.34552 12.9469 7.42502 12.825 7.53752 12.7125L17.0156 3.23439C17.2781 2.97189 17.6063 2.84064 18 2.84064C18.3938 2.84064 18.7313 2.98126 19.0125 3.26251C19.2938 3.54376 19.4344 3.87189 19.4344 4.24689C19.4344 4.62189 19.2938 4.95001 19.0125 5.23126L10.7438 13.5L19.0125 21.7688C19.275 22.0313 19.4063 22.3545 19.4063 22.7385C19.4063 23.1233 19.2656 23.4563 18.9844 23.7375C18.7031 24.0188 18.375 24.1594 18 24.1594C17.625 24.1594 17.2969 24.0188 17.0156 23.7375Z" fill="black"/>
</svg>
