<svg width="27" height="27" viewBox="0 0 27 27" fill="none" xmlns="http://www.w3.org/2000/svg">
<g clip-path="url(#clip0_58_182)">
<path d="M6.87148 19.9544C9.23263 21.8012 11.2171 22.3925 13.5 22.3925C15.4858 22.3925 18.0778 21.5649 20.5713 19.8018C22.3695 18.5301 23.8558 16.6766 25.0263 14.2263C23.7573 12.0231 22.2885 10.2195 20.6212 8.8088C18.3127 6.854 15.7855 5.9576 13.45 5.9576C11.0335 5.9576 8.25253 7.0349 5.87923 9.2975C4.17013 10.9256 2.87548 12.5645 1.99123 14.2088C3.42898 16.6239 5.05708 18.5369 6.87148 19.9544ZM13.5 24.3C10.8351 24.3 8.45773 23.5913 5.74963 21.4731C3.62068 19.8099 1.74823 17.5568 0.128225 14.7231C0.0491137 14.5845 0.00516644 14.4286 0.000224428 14.269C-0.00471758 14.1095 0.0294961 13.9511 0.0998751 13.8078C1.09078 11.7923 2.59873 9.82535 4.61833 7.8989C7.34128 5.30285 10.5745 4.05005 13.45 4.05005C16.2081 4.05005 19.1511 5.0963 21.7984 7.33595C23.7546 8.99105 25.4475 11.1186 26.8785 13.7106C27.027 13.9779 27.0405 14.3033 26.9149 14.5814C25.5811 17.5514 23.8167 19.8221 21.6216 21.3746C18.819 23.355 15.8611 24.3 13.4986 24.3H13.5ZM13.8159 19.44C13.1599 19.44 12.5104 19.3108 11.9044 19.0598C11.2983 18.8088 10.7477 18.4409 10.2839 17.977C9.82005 17.5132 9.45212 16.9626 9.2011 16.3566C8.95007 15.7505 8.82088 15.101 8.82088 14.445C8.82088 13.7891 8.95007 13.1396 9.2011 12.5335C9.45212 11.9275 9.82005 11.3769 10.2839 10.9131C10.7477 10.4492 11.2983 10.0813 11.9044 9.83027C12.5104 9.57925 13.1599 9.45005 13.8159 9.45005C15.1406 9.45005 16.4111 9.97631 17.3479 10.9131C18.2846 11.8498 18.8109 13.1203 18.8109 14.445C18.8109 15.7698 18.2846 17.0403 17.3479 17.977C16.4111 18.9138 15.1406 19.44 13.8159 19.44ZM13.8159 17.55C14.2236 17.55 14.6274 17.4697 15.0041 17.3137C15.3808 17.1577 15.7231 16.9289 16.0114 16.6406C16.2998 16.3523 16.5285 16.01 16.6845 15.6333C16.8406 15.2566 16.9209 14.8528 16.9209 14.445C16.9209 14.0373 16.8406 13.6335 16.6845 13.2568C16.5285 12.8801 16.2998 12.5378 16.0114 12.2495C15.7231 11.9612 15.3808 11.7324 15.0041 11.5764C14.6274 11.4204 14.2236 11.34 13.8159 11.34C12.9924 11.34 12.2026 11.6672 11.6203 12.2495C11.038 12.8318 10.7109 13.6216 10.7109 14.445C10.7109 15.2685 11.038 16.0583 11.6203 16.6406C12.2026 17.2229 12.9924 17.55 13.8159 17.55Z" fill="#1A1B42"/>
</g>
<defs>
<clipPath id="clip0_58_182">
<rect width="27" height="27" fill="white"/>
</clipPath>
</defs>
</svg>
