<svg width="24" height="24" viewBox="0 0 24 24" fill="none" xmlns="http://www.w3.org/2000/svg">
<path d="M14.35 4.72708L15.6755 3.48991C15.8419 3.33459 16.0394 3.21139 16.2567 3.12733C16.4741 3.04327 16.7071 3 16.9424 3C17.1776 3 17.4106 3.04327 17.628 3.12733C17.8453 3.21139 18.0428 3.33459 18.2092 3.48991L19.4756 4.67191C19.8114 4.98542 20 5.41059 20 5.8539C20 6.29722 19.8114 6.72238 19.4756 7.0359L18.1501 8.27306M14.35 4.72708L5.73794 12.7645C5.44058 13.042 5.25733 13.4084 5.22028 13.7994L5.00354 16.0898C4.9919 16.2115 5.00902 16.3342 5.05368 16.4491C5.09834 16.564 5.16946 16.6684 5.26202 16.7549C5.35459 16.8414 5.46635 16.9078 5.58943 16.9496C5.71251 16.9914 5.84391 17.0075 5.97438 16.9968L8.42832 16.7945C8.84785 16.7603 9.24105 16.5892 9.53887 16.3113L18.1501 8.27306M14.35 4.72708L18.1501 8.27306" stroke="black" stroke-width="1.5" stroke-linecap="round" stroke-linejoin="round"/>
<line x1="5" y1="19" x2="19" y2="19" stroke="black" stroke-width="2" stroke-linecap="round"/>
</svg>
