<svg width="27" height="27" viewBox="0 0 27 27" fill="none" xmlns="http://www.w3.org/2000/svg">
<path d="M7.875 7.15725C9.5765 6.1462 11.5208 5.61657 13.5 5.625C20.5954 5.625 24.0379 12.0184 24.6487 13.284C24.7162 13.4224 24.7162 13.5776 24.6487 13.7171C24.2527 14.5361 22.6732 17.4994 19.6875 19.4895M15.75 21.15C15.0095 21.3009 14.2557 21.3763 13.5 21.375C6.40462 21.375 2.96212 14.9816 2.35125 13.716C2.31824 13.6484 2.30109 13.5741 2.30109 13.4989C2.30109 13.4236 2.31824 13.3494 2.35125 13.2817C2.59762 12.7732 3.29625 11.4457 4.5 10.0361M11.25 10.9845C11.893 10.4097 12.7316 10.1029 13.5937 10.127C14.4558 10.1512 15.2759 10.5044 15.8858 11.1142C16.4956 11.7241 16.8488 12.5442 16.873 13.4063C16.8971 14.2684 16.5903 15.107 16.0155 15.75M3.375 3.375L23.625 23.625" stroke="black" stroke-width="2.25" stroke-linecap="round" stroke-linejoin="round"/>
</svg>
