<svg width="27" height="27" viewBox="0 0 27 27" fill="none" xmlns="http://www.w3.org/2000/svg">
<path d="M18.7734 3.375C16.5955 3.375 14.6886 4.31156 13.5 5.89465C12.3114 4.31156 10.4045 3.375 8.22656 3.375C6.4929 3.37695 4.83079 4.06652 3.60491 5.29241C2.37902 6.51829 1.68945 8.1804 1.6875 9.91406C1.6875 17.2969 12.6341 23.2727 13.1003 23.5195C13.2231 23.5856 13.3605 23.6202 13.5 23.6202C13.6395 23.6202 13.7769 23.5856 13.8997 23.5195C14.3659 23.2727 25.3125 17.2969 25.3125 9.91406C25.3105 8.1804 24.621 6.51829 23.3951 5.29241C22.1692 4.06652 20.5071 3.37695 18.7734 3.375ZM13.5 21.8109C11.5741 20.6888 3.375 15.5767 3.375 9.91406C3.37667 8.62786 3.88836 7.39482 4.79784 6.48534C5.70732 5.57586 6.94036 5.06417 8.22656 5.0625C10.2779 5.0625 12.0002 6.15516 12.7195 7.91016C12.7831 8.06491 12.8912 8.19727 13.0302 8.29042C13.1692 8.38357 13.3327 8.43331 13.5 8.43331C13.6673 8.43331 13.8308 8.38357 13.9698 8.29042C14.1088 8.19727 14.2169 8.06491 14.2805 7.91016C14.9998 6.15199 16.7221 5.0625 18.7734 5.0625C20.0596 5.06417 21.2927 5.57586 22.2022 6.48534C23.1116 7.39482 23.6233 8.62786 23.625 9.91406C23.625 15.5682 15.4237 20.6877 13.5 21.8109Z" fill="black"/>
</svg>
