<svg width="27" height="27" viewBox="0 0 27 27" fill="none" xmlns="http://www.w3.org/2000/svg">
<path d="M14.625 21.375H21.375V11.2253L13.5 5.10075L5.625 11.2253V21.375H12.375V14.625H14.625V21.375ZM23.625 22.5C23.625 22.7984 23.5065 23.0845 23.2955 23.2955C23.0845 23.5065 22.7984 23.625 22.5 23.625H4.5C4.20163 23.625 3.91548 23.5065 3.70451 23.2955C3.49353 23.0845 3.375 22.7984 3.375 22.5V10.6763C3.37488 10.5048 3.41394 10.3356 3.48921 10.1816C3.56447 10.0276 3.67394 9.89276 3.80925 9.7875L12.8092 2.78775C13.0067 2.63413 13.2498 2.55072 13.5 2.55072C13.7502 2.55072 13.9933 2.63413 14.1908 2.78775L23.1908 9.7875C23.3261 9.89276 23.4355 10.0276 23.5108 10.1816C23.5861 10.3356 23.6251 10.5048 23.625 10.6763V22.5Z" fill="black"/>
</svg>
