<svg width="24" height="24" viewBox="0 0 24 24" fill="none" xmlns="http://www.w3.org/2000/svg">
<g clip-path="url(#clip0_124_39)">
<path fill-rule="evenodd" clip-rule="evenodd" d="M9.821 3.21201C10.117 2.52201 10.881 1.89601 11.845 2.08201C13.319 2.36501 14.884 3.48301 14.994 5.29601L15 5.50001V8.00001H17.405C17.9744 7.99998 18.5372 8.12151 19.0559 8.35648C19.5745 8.59144 20.037 8.93443 20.4125 9.36251C20.7879 9.79058 21.0676 10.2939 21.2329 10.8387C21.3982 11.3836 21.4453 11.9575 21.371 12.522L21.341 12.716L20.431 17.716C20.2697 18.604 19.8127 19.4114 19.1345 20.0069C18.4562 20.6024 17.5965 20.951 16.695 20.996L16.496 21H6C5.23479 21 4.49849 20.7077 3.94174 20.1827C3.38499 19.6578 3.04989 18.9399 3.005 18.176L3 18V12C2.99996 11.2348 3.29233 10.4985 3.81728 9.94175C4.34224 9.385 5.06011 9.0499 5.824 9.00501L6 9.00001H7.34L9.821 3.21201Z" fill="#D9127E"/>
</g>
<defs>
<clipPath id="clip0_124_39">
<rect width="24" height="24" fill="white"/>
</clipPath>
</defs>
</svg>
