<svg width="30" height="30" viewBox="0 0 30 30" fill="none" xmlns="http://www.w3.org/2000/svg">
<path d="M28 16.99V15.99H26V16.99H28ZM15 5.99799H16V3.99799H15V5.99799ZM17 4.99799L17.706 5.70399L18.414 4.99799L17.706 4.28999L17 4.99799ZM26 16.99C25.9984 19.9061 24.8387 22.7023 22.7759 24.7636C20.7131 26.8249 17.9162 27.9825 15 27.982V29.982C22.178 29.982 28 24.164 28 16.99H26ZM15 27.98C12.0842 27.9805 9.2875 26.8231 7.22477 24.7623C5.16205 22.7014 4.00212 19.9058 4 16.99H2C2.00159 20.4366 3.372 23.7414 5.80985 26.1778C8.24771 28.6142 11.5534 29.9825 15 29.982V27.982V27.98ZM4 16.99C4.00159 14.0738 5.16128 11.2777 7.22407 9.2164C9.28685 7.15512 12.0838 5.99746 15 5.99799V3.99799C11.5534 3.99746 8.24771 5.36583 5.80985 7.80219C3.372 10.2385 2.00159 13.5434 2 16.99H4ZM12.294 1.70799L16.294 5.70399L17.706 4.28999L13.706 0.291992L12.294 1.70799ZM16.294 4.28999L12.294 8.28799L13.706 9.70199L17.706 5.70399L16.294 4.28999Z" fill="black"/>
<path d="M10.82 21V15.67H10.8L9.18 17.17L8.65 15.73L10.82 13.7H12.58V21H10.82ZM15.5639 14.48C16.0439 13.8933 16.7739 13.6 17.7539 13.6C18.7339 13.6 19.4606 13.8933 19.9339 14.48C20.4139 15.0667 20.6539 16.0233 20.6539 17.35C20.6539 18.6767 20.4139 19.6333 19.9339 20.22C19.4606 20.8067 18.7339 21.1 17.7539 21.1C16.7739 21.1 16.0439 20.8067 15.5639 20.22C15.0906 19.6333 14.8539 18.6767 14.8539 17.35C14.8539 16.0233 15.0906 15.0667 15.5639 14.48ZM16.8639 19.26C17.0572 19.6267 17.3539 19.81 17.7539 19.81C18.1539 19.81 18.4472 19.6267 18.6339 19.26C18.8272 18.8933 18.9239 18.2567 18.9239 17.35C18.9239 16.4433 18.8272 15.8067 18.6339 15.44C18.4472 15.0733 18.1539 14.89 17.7539 14.89C17.3539 14.89 17.0572 15.0733 16.8639 15.44C16.6772 15.8067 16.5839 16.4433 16.5839 17.35C16.5839 18.2567 16.6772 18.8933 16.8639 19.26Z" fill="black"/>
</svg>
