<svg width="50" height="50" viewBox="0 0 50 50" fill="none" xmlns="http://www.w3.org/2000/svg">
<path d="M21.875 17.1875C21.875 16.3246 21.1754 15.625 20.3125 15.625V15.625C19.4496 15.625 18.75 16.3246 18.75 17.1875V32.8125C18.75 33.6754 19.4496 34.375 20.3125 34.375V34.375C21.1754 34.375 21.875 33.6754 21.875 32.8125V17.1875ZM31.25 17.1875C31.25 16.3246 30.5504 15.625 29.6875 15.625V15.625C28.8246 15.625 28.125 16.3246 28.125 17.1875V32.8125C28.125 33.6754 28.8246 34.375 29.6875 34.375V34.375C30.5504 34.375 31.25 33.6754 31.25 32.8125V17.1875Z" fill="black"/>
<path d="M25 6.25C28.7084 6.25 32.3335 7.34967 35.417 9.40994C38.5004 11.4702 40.9036 14.3986 42.3227 17.8247C43.7419 21.2508 44.1132 25.0208 43.3897 28.6579C42.6663 32.2951 40.8805 35.636 38.2583 38.2583C35.636 40.8805 32.2951 42.6662 28.658 43.3897C25.0208 44.1132 21.2508 43.7419 17.8247 42.3227C14.3986 40.9036 11.4702 38.5004 9.40995 35.4169C7.34968 32.3335 6.25001 28.7084 6.25001 25C6.25001 20.0272 8.22545 15.2581 11.7418 11.7417C15.2581 8.22544 20.0272 6.25 25 6.25ZM25 3.125C20.6735 3.125 16.4442 4.40795 12.8469 6.8116C9.24959 9.21526 6.44581 12.6317 4.79014 16.6288C3.13448 20.6259 2.70128 25.0243 3.54533 29.2676C4.38938 33.5109 6.47277 37.4087 9.53205 40.468C12.5913 43.5272 16.4891 45.6106 20.7324 46.4547C24.9757 47.2987 29.3741 46.8655 33.3712 45.2099C37.3683 43.5542 40.7848 40.7504 43.1884 37.1531C45.5921 33.5558 46.875 29.3265 46.875 25C46.875 19.1984 44.5703 13.6344 40.468 9.53204C36.3656 5.42968 30.8016 3.125 25 3.125Z" fill="black"/>
</svg>
