<svg width="30" height="30" viewBox="0 0 30 30" fill="none" xmlns="http://www.w3.org/2000/svg">
<path fill-rule="evenodd" clip-rule="evenodd" d="M16.29 0.291992L17.706 1.70799L15.408 4.00399C18.7824 4.10944 21.9833 5.52365 24.3334 7.94733C26.6836 10.371 27.9985 13.614 28 16.99C27.9984 20.4366 26.628 23.7414 24.1901 26.1778C21.7523 28.6142 18.4466 29.9825 15 29.982C11.5534 29.9825 8.24771 28.6142 5.80985 26.1778C3.372 23.7414 2.00159 20.4366 2 16.99V15.99H4V16.99C4.00159 19.9061 5.16128 22.7023 7.22407 24.7636C9.28685 26.8249 12.0838 27.9825 15 27.982C17.916 27.982 20.7127 26.8242 22.7753 24.763C24.838 22.7018 25.9979 19.906 26 16.99C25.9985 14.1469 24.896 11.4149 22.9238 9.36699C20.9516 7.31913 18.263 6.11457 15.422 6.00599L17.706 8.28599L16.29 9.70199L11.586 4.99799L16.29 0.291992Z" fill="black"/>
<path d="M10.82 21V15.67H10.8L9.18 17.17L8.65 15.73L10.82 13.7H12.58V21H10.82ZM15.5639 14.48C16.0439 13.8933 16.7739 13.6 17.7539 13.6C18.7339 13.6 19.4606 13.8933 19.9339 14.48C20.4139 15.0667 20.6539 16.0233 20.6539 17.35C20.6539 18.6767 20.4139 19.6333 19.9339 20.22C19.4606 20.8067 18.7339 21.1 17.7539 21.1C16.7739 21.1 16.0439 20.8067 15.5639 20.22C15.0906 19.6333 14.8539 18.6767 14.8539 17.35C14.8539 16.0233 15.0906 15.0667 15.5639 14.48ZM16.8639 19.26C17.0572 19.6267 17.3539 19.81 17.7539 19.81C18.1539 19.81 18.4472 19.6267 18.6339 19.26C18.8272 18.8933 18.9239 18.2567 18.9239 17.35C18.9239 16.4433 18.8272 15.8067 18.6339 15.44C18.4472 15.0733 18.1539 14.89 17.7539 14.89C17.3539 14.89 17.0572 15.0733 16.8639 15.44C16.6772 15.8067 16.5839 16.4433 16.5839 17.35C16.5839 18.2567 16.6772 18.8933 16.8639 19.26Z" fill="black"/>
</svg>
