<svg width="50" height="50" viewBox="0 0 50 50" fill="none" xmlns="http://www.w3.org/2000/svg">
<path d="M43.75 25C43.75 14.6484 35.3516 6.25 25 6.25C14.6484 6.25 6.25 14.6484 6.25 25C6.25 35.3516 14.6484 43.75 25 43.75C35.3516 43.75 43.75 35.3516 43.75 25Z" stroke="black" stroke-width="2.1875" stroke-miterlimit="10"/>
<path d="M21.875 17.1875C21.875 16.3246 21.1754 15.625 20.3125 15.625V15.625C19.4496 15.625 18.75 16.3246 18.75 17.1875V32.8125C18.75 33.6754 19.4496 34.375 20.3125 34.375V34.375C21.1754 34.375 21.875 33.6754 21.875 32.8125V17.1875ZM31.25 17.1875C31.25 16.3246 30.5504 15.625 29.6875 15.625V15.625C28.8246 15.625 28.125 16.3246 28.125 17.1875V32.8125C28.125 33.6754 28.8246 34.375 29.6875 34.375V34.375C30.5504 34.375 31.25 33.6754 31.25 32.8125V17.1875Z" fill="black"/>
</svg>
