<svg width="27" height="27" viewBox="0 0 27 27" fill="none" xmlns="http://www.w3.org/2000/svg">
<path d="M11.5875 8.6625C11.4833 8.76546 11.4005 8.88809 11.3441 9.02327C11.2876 9.15845 11.2585 9.3035 11.2585 9.45C11.2585 9.5965 11.2876 9.74155 11.3441 9.87673C11.4005 10.0119 11.4833 10.1345 11.5875 10.2375L13.725 12.375H3.375C2.75625 12.375 2.25 12.8813 2.25 13.5C2.25 14.1187 2.75625 14.625 3.375 14.625H13.725L11.5875 16.7625C11.4833 16.8655 11.4005 16.9881 11.3441 17.1233C11.2876 17.2585 11.2585 17.4035 11.2585 17.55C11.2585 17.6965 11.2876 17.8415 11.3441 17.9767C11.4005 18.1119 11.4833 18.2345 11.5875 18.3375C12.0262 18.7762 12.7238 18.7762 13.1625 18.3375L17.2013 14.2987C17.3055 14.1947 17.3883 14.071 17.4447 13.935C17.5012 13.7989 17.5302 13.653 17.5302 13.5056C17.5302 13.3583 17.5012 13.2124 17.4447 13.0763C17.3883 12.9402 17.3055 12.8166 17.2013 12.7125L13.1625 8.6625C13.0595 8.55828 12.9369 8.47553 12.8017 8.41906C12.6665 8.36259 12.5215 8.33351 12.375 8.33351C12.2285 8.33351 12.0835 8.36259 11.9483 8.41906C11.8131 8.47553 11.6905 8.55828 11.5875 8.6625ZM22.5 21.375H14.625C14.0063 21.375 13.5 21.8813 13.5 22.5C13.5 23.1187 14.0063 23.625 14.625 23.625H22.5C23.7375 23.625 24.75 22.6125 24.75 21.375V5.625C24.75 4.3875 23.7375 3.375 22.5 3.375H14.625C14.0063 3.375 13.5 3.88125 13.5 4.5C13.5 5.11875 14.0063 5.625 14.625 5.625H22.5V21.375Z" fill="black"/>
</svg>
