<svg width="27" height="27" viewBox="0 0 27 27" fill="none" xmlns="http://www.w3.org/2000/svg">
<path d="M22.3875 14.2425C22.2071 14.0372 22.1077 13.7733 22.1077 13.5C22.1077 13.2267 22.2071 12.9628 22.3875 12.7575L23.8275 11.1375C23.9862 10.9605 24.0847 10.7378 24.109 10.5013C24.1332 10.2649 24.082 10.0268 23.9625 9.82125L21.7125 5.92875C21.5943 5.72347 21.4142 5.56074 21.1981 5.46378C20.9819 5.36681 20.7407 5.34056 20.5088 5.38875L18.3938 5.81625C18.1246 5.87186 17.8445 5.82704 17.6061 5.69025C17.3678 5.55347 17.1878 5.33417 17.1 5.07375L16.4138 3.015C16.3383 2.79156 16.1945 2.59748 16.0027 2.4602C15.8109 2.32293 15.5809 2.2494 15.345 2.25H10.845C10.5997 2.2372 10.3569 2.30505 10.1538 2.44318C9.95062 2.58132 9.79828 2.78215 9.72001 3.015L9.09001 5.07375C9.00226 5.33417 8.82222 5.55347 8.58388 5.69025C8.34554 5.82704 8.06537 5.87186 7.79625 5.81625L5.62501 5.38875C5.40513 5.35768 5.18097 5.39238 4.98077 5.48847C4.78057 5.58457 4.61329 5.73776 4.50001 5.92875L2.25001 9.82125C2.12756 10.0245 2.07251 10.2612 2.09271 10.4976C2.11292 10.734 2.20735 10.958 2.36251 11.1375L3.79126 12.7575C3.97161 12.9628 4.07108 13.2267 4.07108 13.5C4.07108 13.7733 3.97161 14.0372 3.79126 14.2425L2.36251 15.8625C2.20735 16.042 2.11292 16.266 2.09271 16.5024C2.07251 16.7388 2.12756 16.9755 2.25001 17.1788L4.50001 21.0713C4.61824 21.2765 4.79826 21.4393 5.01441 21.5362C5.23056 21.6332 5.47181 21.6595 5.70376 21.6113L7.81875 21.1838C8.08787 21.1281 8.36804 21.173 8.60638 21.3098C8.84472 21.4465 9.02476 21.6658 9.11251 21.9263L9.79876 23.985C9.87703 24.2179 10.0294 24.4187 10.2325 24.5568C10.4357 24.695 10.6784 24.7628 10.9238 24.75H15.4238C15.6596 24.7506 15.8897 24.6771 16.0815 24.5398C16.2732 24.4025 16.417 24.2085 16.4925 23.985L17.1788 21.9263C17.2665 21.6658 17.4465 21.4465 17.6849 21.3098C17.9232 21.173 18.2034 21.1281 18.4725 21.1838L20.5875 21.6113C20.8195 21.6595 21.0607 21.6332 21.2768 21.5362C21.493 21.4393 21.673 21.2765 21.7913 21.0713L24.0413 17.1788C24.1607 16.9732 24.212 16.7352 24.1877 16.4987C24.1635 16.2622 24.0649 16.0395 23.9063 15.8625L22.3875 14.2425ZM20.7113 15.75L21.6113 16.7625L20.1713 19.26L18.8438 18.99C18.0335 18.8244 17.1906 18.962 16.4752 19.3768C15.7597 19.7915 15.2214 20.4546 14.9625 21.24L14.535 22.5H11.655L11.25 21.2175C10.9911 20.4321 10.4528 19.769 9.73734 19.3543C9.02186 18.9395 8.179 18.8019 7.36876 18.9675L6.04126 19.2375L4.57876 16.7513L5.47876 15.7388C6.0322 15.12 6.33818 14.3189 6.33818 13.4888C6.33818 12.6586 6.0322 11.8575 5.47876 11.2388L4.57876 10.2263L6.01876 7.75125L7.34626 8.02125C8.1565 8.18688 8.99936 8.04924 9.71484 7.63448C10.4303 7.21971 10.9686 6.55668 11.2275 5.77125L11.655 4.5H14.535L14.9625 5.7825C15.2214 6.56793 15.7597 7.23096 16.4752 7.64573C17.1906 8.06049 18.0335 8.19813 18.8438 8.0325L20.1713 7.7625L21.6113 10.26L20.7113 11.2725C20.164 11.8899 19.8618 12.6863 19.8618 13.5113C19.8618 14.3362 20.164 15.1326 20.7113 15.75ZM13.095 9C12.205 9 11.335 9.26392 10.5949 9.75839C9.85492 10.2529 9.27814 10.9557 8.93755 11.7779C8.59695 12.6002 8.50784 13.505 8.68147 14.3779C8.8551 15.2508 9.28369 16.0526 9.91302 16.682C10.5424 17.3113 11.3442 17.7399 12.2171 17.9135C13.09 18.0872 13.9948 17.9981 14.8171 17.6575C15.6393 17.3169 16.3422 16.7401 16.8366 16.0001C17.3311 15.26 17.595 14.39 17.595 13.5C17.595 12.3065 17.1209 11.1619 16.277 10.318C15.4331 9.47411 14.2885 9 13.095 9ZM13.095 15.75C12.65 15.75 12.215 15.618 11.845 15.3708C11.475 15.1236 11.1866 14.7722 11.0163 14.361C10.846 13.9499 10.8014 13.4975 10.8882 13.0611C10.9751 12.6246 11.1893 12.2237 11.504 11.909C11.8187 11.5943 12.2196 11.3801 12.6561 11.2932C13.0925 11.2064 13.5449 11.251 13.956 11.4213C14.3672 11.5916 14.7186 11.88 14.9658 12.25C15.213 12.62 15.345 13.055 15.345 13.5C15.345 14.0967 15.108 14.669 14.686 15.091C14.264 15.513 13.6917 15.75 13.095 15.75Z" fill="black"/>
</svg>
