<svg width="18" height="18" viewBox="0 0 18 18" fill="none" xmlns="http://www.w3.org/2000/svg">
<path d="M16.4883 8.04233L13.3172 10.8098L14.2671 14.9301C14.3174 15.1455 14.303 15.371 14.2259 15.5783C14.1487 15.7856 14.0121 15.9655 13.8333 16.0956C13.6544 16.2257 13.4411 16.3002 13.2202 16.3098C12.9992 16.3193 12.7803 16.2635 12.5909 16.1494L8.99718 13.9697L5.41124 16.1494C5.2218 16.2635 5.0029 16.3193 4.78193 16.3098C4.56095 16.3002 4.34769 16.2257 4.16882 16.0956C3.98994 15.9655 3.85339 15.7856 3.77623 15.5783C3.69907 15.371 3.68472 15.1455 3.73499 14.9301L4.68351 10.814L1.51171 8.04233C1.34395 7.89764 1.22264 7.70664 1.163 7.49329C1.10336 7.27993 1.10803 7.05372 1.17644 6.84301C1.24485 6.6323 1.37395 6.44648 1.54754 6.30885C1.72113 6.17122 1.9315 6.08791 2.15226 6.06936L6.33304 5.70725L7.96499 1.81475C8.05021 1.6105 8.19396 1.43604 8.37814 1.31332C8.56231 1.1906 8.77868 1.12512 8.99999 1.12512C9.2213 1.12512 9.43767 1.1906 9.62185 1.31332C9.80602 1.43604 9.94977 1.6105 10.035 1.81475L11.6719 5.70725L15.8512 6.06936C16.072 6.08791 16.2824 6.17122 16.456 6.30885C16.6296 6.44648 16.7586 6.6323 16.8271 6.84301C16.8955 7.05372 16.9001 7.27993 16.8405 7.49329C16.7809 7.70664 16.6595 7.89764 16.4918 8.04233H16.4883Z" fill="#FE007A"/>
</svg>
