<svg width="18" height="18" viewBox="0 0 18 18" fill="none" xmlns="http://www.w3.org/2000/svg">
<path d="M15.1875 4.50001H10.3577L12.773 2.08548C12.8785 1.97993 12.9378 1.83677 12.9378 1.68751C12.9378 1.53824 12.8785 1.39509 12.773 1.28954C12.6674 1.18399 12.5243 1.12469 12.375 1.12469C12.2257 1.12469 12.0826 1.18399 11.977 1.28954L9 4.26727L6.02297 1.28954C5.97071 1.23728 5.90866 1.19582 5.84038 1.16754C5.7721 1.13925 5.69891 1.12469 5.625 1.12469C5.55109 1.12469 5.4779 1.13925 5.40962 1.16754C5.34134 1.19582 5.27929 1.23728 5.22703 1.28954C5.12148 1.39509 5.06219 1.53824 5.06219 1.68751C5.06219 1.83677 5.12148 1.97993 5.22703 2.08548L7.64227 4.50001H2.8125C2.51413 4.50001 2.22798 4.61853 2.017 4.82951C1.80603 5.04049 1.6875 5.32664 1.6875 5.62501V14.0625C1.6875 14.3609 1.80603 14.647 2.017 14.858C2.22798 15.069 2.51413 15.1875 2.8125 15.1875H15.1875C15.4859 15.1875 15.772 15.069 15.983 14.858C16.194 14.647 16.3125 14.3609 16.3125 14.0625V5.62501C16.3125 5.32664 16.194 5.04049 15.983 4.82951C15.772 4.61853 15.4859 4.50001 15.1875 4.50001ZM15.1875 14.0625H2.8125V5.62501H15.1875V14.0625Z" fill="black"/>
</svg>
