<svg width="53" height="34" viewBox="0 0 53 34" fill="none" xmlns="http://www.w3.org/2000/svg">
<path d="M12.3152 11.2371C14.276 11.9772 15.3835 14.7555 16.5152 18.0374C20.7274 22.211 23.5719 20.2334 25.6477 16.8908C24.5644 14.0397 22.773 9.29587 22.0952 8.27674C17.768 1.73122 6.81389 4.83109 6.35999 14.5007C7.37067 11.1946 10.0638 10.3817 12.3152 11.2371Z" fill="url(#paint0_linear_60_727)"/>
<path d="M16.5153 18.0374C20.7275 22.211 23.5719 20.2334 25.6477 16.8908C25.3875 16.2053 25.091 15.4167 24.7702 14.5978C22.5915 23.5516 16.5153 18.0374 16.5153 18.0374Z" fill="#7E004D"/>
<path d="M32.6499 22.6174C34.7802 19.0504 36.6442 15.0892 38.0665 12.79C39.2526 10.867 40.5962 9.90249 42.9625 10.8792C44.1245 11.3584 45.1231 12.4079 45.6557 14.1489C45.2018 4.48531 34.2476 1.37937 29.9204 7.92488C27.6449 11.3584 24.6068 26.057 16.5153 18.0374C19.8318 27.6464 24.1832 36.77 32.6499 22.6174Z" fill="url(#paint1_linear_60_727)"/>
<path d="M34.5925 9.69017C35.9542 8.40412 37.7214 7.70043 40.0635 8.00981C44.8809 8.65891 45.6556 14.1489 45.6556 14.1489C45.2017 4.48531 34.2476 1.37937 29.9204 7.92488C28.359 10.2847 26.4344 17.9646 22.7609 19.9361C24.0802 22.1564 25.6174 23.1573 28.2077 20.8279C31.7299 17.6431 31.2216 12.8871 34.5925 9.69017Z" fill="#F9FCBA"/>
<path d="M20.443 15.0892C18.3793 10.6608 15.3412 6.57821 10.0336 9.05325C6.55365 10.6729 6.35999 14.5008 6.35999 14.5008C7.37067 11.1946 10.0638 10.3818 12.3152 11.2371C14.276 11.9772 15.3835 14.7555 16.5152 18.0374C19.045 20.5488 21.0845 20.834 22.7609 19.9362C21.9681 18.6076 21.254 16.8423 20.443 15.0892Z" fill="#7E004D"/>
<path d="M46.3577 12.1106C46.3577 12.1106 45.2017 5.79561 39.7186 4.18805C43.6948 3.99999 46.5332 9.02894 46.3577 12.1106Z" fill="#F9E25F"/>
<path d="M15.9888 18.8806C15.9888 18.8806 17.998 26.5423 21.1753 29.4541C18.2159 27.5918 16.1461 22.2292 15.9888 18.8806Z" fill="#EE335E"/>
<path d="M21.9742 6.77837C21.9742 6.77837 19.5171 3.07187 14.2942 4.10921C17.0842 2.71396 20.6912 4.00001 21.9742 6.77837Z" fill="#F53A91"/>
<defs>
<linearGradient id="paint0_linear_60_727" x1="5.3493" y1="22.7569" x2="0.802633" y2="6.82647" gradientUnits="userSpaceOnUse">
<stop stop-color="#E60040"/>
<stop offset="1" stop-color="#FB4FAF"/>
</linearGradient>
<linearGradient id="paint1_linear_60_727" x1="-0.920567" y1="17.5339" x2="15.6203" y2="-4.09123" gradientUnits="userSpaceOnUse">
<stop stop-color="#EA0079"/>
<stop offset="1" stop-color="#F8CD0F"/>
</linearGradient>
</defs>
</svg>
